<?xml version="1.0" standalone="no"?>
<!DOCTYPE svg PUBLIC "-//W3C//DTD SVG 20010904//EN"
 "http://www.w3.org/TR/2001/REC-SVG-20010904/DTD/svg10.dtd">
<svg version="1.0" xmlns="http://www.w3.org/2000/svg"
 width="24.000000pt" height="24.000000pt" viewBox="0 0 24.000000 24.000000"
 preserveAspectRatio="xMidYMid meet">

<g transform="translate(0.000000,24.000000) scale(0.100000,-0.100000)"
fill="#000000" stroke="none">
<path d="M5 220 c-3 -5 2 -10 13 -10 15 0 23 -13 36 -58 9 -32 16 -66 16 -75
0 -9 5 -17 10 -17 6 0 10 -9 10 -21 0 -14 5 -19 18 -17 10 2 16 11 14 21 -2
11 4 17 18 17 14 0 20 -7 20 -21 0 -14 5 -19 18 -17 10 2 16 11 14 21 -2 9 3
18 10 19 7 1 -18 4 -57 8 l-70 6 61 2 c36 1 66 7 71 15 9 11 33 86 33 101 0 3
-42 6 -94 6 -74 0 -95 3 -100 15 -6 17 -32 20 -41 5z m215 -49 c0 -4 -5 -22
-11 -40 -11 -30 -13 -31 -69 -31 -53 0 -58 2 -64 24 -3 13 -9 31 -12 40 -5 14
5 16 75 16 45 0 81 -4 81 -9z"/>
</g>
</svg>
