<?xml version="1.0" encoding="UTF-8" standalone="no"?>
<svg
   xmlns:dc="http://purl.org/dc/elements/1.1/"
   xmlns:cc="http://creativecommons.org/ns#"
   xmlns:rdf="http://www.w3.org/1999/02/22-rdf-syntax-ns#"
   xmlns:svg="http://www.w3.org/2000/svg"
   xmlns="http://www.w3.org/2000/svg"
   xmlns:sodipodi="http://sodipodi.sourceforge.net/DTD/sodipodi-0.dtd"
   xmlns:inkscape="http://www.inkscape.org/namespaces/inkscape"
   version="1.1"
   width="841.88977"
   height="595.27557"
   id="svg17"
   viewBox="0 0 841.88977 595.27557"
   sodipodi:docname="wefeasto logo.cdr">
  <metadata
     id="metadata23">
    <rdf:RDF>
      <cc:Work
         rdf:about="">
        <dc:format>image/svg+xml</dc:format>
        <dc:type
           rdf:resource="http://purl.org/dc/dcmitype/StillImage" />
      </cc:Work>
    </rdf:RDF>
  </metadata>
  <defs
     id="defs21" />
  <sodipodi:namedview
     pagecolor="#ffffff"
     bordercolor="#666666"
     borderopacity="1"
     objecttolerance="10"
     gridtolerance="10"
     guidetolerance="10"
     inkscape:pageopacity="0"
     inkscape:pageshadow="2"
     inkscape:window-width="640"
     inkscape:window-height="480"
     id="namedview19" />
  <g
     id="Layer1000">
    <path
       d="m 86.4115,370.4903 c 0,-1.3767 0.3061,-3.3043 0.8873,-5.7828 0.6122,-2.4785 1.4078,-4.4069 2.4482,-5.7836 2.5701,-3.6416 4.9266,-6.9762 7.0678,-10.0367 2.1732,-3.0293 4.0697,-5.6608 5.7534,-7.8945 1.6829,-2.2026 3.3657,-4.1614 5.0174,-5.9056 10.2209,-11.0459 17.5334,-19.308 21.9404,-24.7855 4.4363,-5.4766 6.6397,-9.2713 6.6397,-11.4436 0,-1.4079 -0.6425,-2.5399 -1.9587,-3.3355 -1.3153,-0.8258 -3.0596,-1.2236 -5.2016,-1.2236 -4.4372,0 -9.9753,1.56 -16.6764,4.6819 -6.7012,3.1513 -14.5041,7.2209 -23.439,12.209 -8.9349,5.0183 -13.923,7.527 -14.9322,7.527 -1.6223,0 -2.417,-1.1631 -2.417,-3.4885 0,-1.9579 0.6114,-4.7425 1.8662,-8.3841 0.9789,-3.9468 1.7442,-7.0073 2.3556,-9.1796 0.582,-2.2035 1.5912,-4.1613 2.9991,-5.8753 1.4078,-1.7443 3.7332,-3.6407 7.0073,-5.6609 3.2438,-2.0495 8.2621,-4.8038 15.0238,-8.3529 l 0.8873,3.3346 c 5.6003,-2.264 10.8936,-4.0082 15.8816,-5.2016 4.9872,-1.1934 9.2402,-1.8048 12.7599,-1.8048 6.9147,0 11.8414,1.1934 14.7176,3.549 2.9074,2.3566 4.3456,7.4968 4.3456,15.3914 0,4.2841 -0.6123,7.8946 -1.8671,10.7405 -1.2548,2.8763 -3.7021,6.8846 -7.3437,12.0257 -8.2924,12.0861 -14.5041,20.4399 -18.6957,25.1218 -12.1173,13.8607 -18.1759,21.9395 -18.1759,24.2649 0,1.3153 0.857,1.989 2.6004,1.989 1.4381,0 3.4582,-1.0101 6.0898,-3.0605 2.6315,-2.0193 5.7827,-4.9569 9.4857,-8.7818 3.7021,-3.8249 8.8433,-9.2713 15.3914,-16.4006 7.0073,-7.5279 12.9129,-14.1677 17.7167,-19.9513 4.8039,-5.7525 8.7516,-10.6783 11.8726,-14.7791 3.0898,-4.0999 4.7424,-6.3034 4.9258,-6.6095 3.2437,-3.9469 6.5792,-7.1906 10.0063,-9.7305 3.4271,-2.5399 5.6297,-3.7938 6.6095,-3.7938 0.704,0 1.5298,0.6425 2.5088,1.9579 0.9486,1.3162 1.7745,2.8762 2.4481,4.6516 0.704,1.8048 1.0404,3.1816 1.0404,4.1302 0,0.3061 -0.704,1.7443 -2.1421,4.3455 -1.4381,2.6004 -2.999,5.2933 -4.6819,8.0779 -1.6517,2.7544 -4.3446,7.0073 -8.0779,12.7599 -8.1393,12.6067 -14.351,23.1942 -18.6654,31.7616 -4.3144,8.5682 -6.4565,14.1979 -6.4565,16.8909 0,0.9486 0.3364,1.8359 1.0404,2.6315 0.6736,0.8258 1.3767,1.2236 2.1118,1.2236 0.9486,0 2.692,-0.7644 5.2016,-2.2639 2.5087,-1.5298 5.2933,-3.7022 8.3227,-6.5482 4.0082,-3.8249 7.6809,-7.8029 10.955,-11.9339 3.3043,-4.1302 6.5481,-8.7205 9.791,-13.8002 3.2135,-5.0788 6.0898,-9.8835 8.5985,-14.4427 2.5096,-4.5288 5.0486,-9.3327 7.6196,-14.351 l -1.4995,-4.5591 c -0.2448,-0.7342 -0.3676,-1.6526 -0.3676,-2.7846 0,-0.8872 1.7443,-3.8249 5.2631,-8.7515 3.5188,-4.9258 5.845,-7.4043 6.977,-7.4043 1.254,0 2.2952,0.9175 3.1824,2.7535 0.8562,1.8056 1.2851,3.6416 1.2851,5.5077 0,2.0202 -0.9184,6.0898 -2.7232,12.1485 -1.8359,6.0578 -4.6517,13.4023 -8.5068,22 -3.8552,8.6296 -8.5985,17.3803 -14.2594,26.2849 -4.9266,7.7718 -10.1586,14.4125 -15.758,19.9505 -5.5692,5.5389 -10.6186,9.6388 -15.0861,12.3318 -4.4977,2.692 -7.802,4.0385 -9.9752,4.0385 -2.4474,0 -5.0183,-1.1009 -7.7104,-3.3043 -2.2035,-1.8974 -3.7644,-3.6416 -4.6819,-5.1412 -0.9184,-1.5297 -1.5298,-3.1815 -1.8057,-4.9871 -0.3052,-1.7746 -0.4583,-3.8864 -0.4583,-6.2731 0,-5.0486 1.407,-11.0156 4.1916,-17.8085 2.8148,-6.7928 6.977,-15.2685 12.5151,-25.4279 -17.3804,21.1438 -30.8441,36.5049 -40.3904,46.1437 -9.5169,9.6077 -16.4931,14.4116 -20.8992,14.4116 -2.9376,0 -5.4161,-1.7434 -7.4362,-5.2319 -2.0495,-3.4885 -3.0596,-7.6801 -3.0596,-12.5765 z m 130.3889,-10.495 v 2.2337 c 0,3.5188 0.857,6.2723 2.6012,8.231 1.7434,1.989 4.0083,2.9679 6.8232,2.9679 2.9073,0 5.9669,-0.6728 9.0879,-2.0503 3.1521,-1.3768 6.2731,-3.2127 9.363,-5.4767 3.1218,-2.2649 6.9156,-5.3244 11.3831,-9.1494 v 5.4775 c -6.7315,8.1082 -13.066,14.3502 -19.0018,18.6655 -5.9056,4.3143 -11.9028,6.4867 -18.0229,6.4867 -5.2933,0 -9.516,-2.0504 -12.637,-6.1815 -3.0907,-4.1302 -4.6517,-9.7607 -4.6517,-16.9514 0,-6.2731 1.4693,-11.9642 4.4061,-17.0742 2.9074,-5.11 7.681,-10.4958 14.3207,-16.1567 4.5592,-3.8863 9.0577,-6.8231 13.5555,-8.7818 4.4674,-1.989 8.4757,-2.9679 11.9945,-2.9679 2.8157,0 5.0494,0.6425 6.6709,1.9276 1.6526,1.285 2.4784,3.2126 2.4784,5.7836 0,3.7635 -1.4078,7.527 -4.2227,11.2603 -2.8149,3.7333 -7.099,7.4354 -12.8515,11.1375 -5.7836,3.6718 -12.8826,7.2218 -21.2969,10.6186 z m 0.8873,-5.8139 c 5.3858,-2.1118 9.9752,-4.7122 13.8001,-7.8029 3.8249,-3.0907 6.6398,-6.0898 8.4757,-8.9046 1.8057,-2.846 2.7241,-4.9267 2.7241,-6.242 0,-1.3767 -0.6123,-2.0504 -1.8671,-2.0504 -1.1017,0 -2.846,0.6737 -5.263,2.0504 -2.4171,1.3767 -4.8653,3.1824 -7.3438,5.385 -2.4784,2.2034 -4.6819,4.8047 -6.6709,7.8029 -1.9578,2.9679 -3.2429,6.2428 -3.8551,9.7616 z"
       style="fill:#679111;fill-rule:evenodd"
       id="path2" />
    <path
       d="m 731.4346,254.2628 c -0.0528,15.329 -15.5731,34.9949 -38.7424,51.1575 49.6391,7.7553 68.4752,-26.8075 53.573,-100.8366 -10.0343,28.5235 -95.0561,44.7932 -58.8916,94.0174 21.0522,-10.4468 36.5888,-24.6478 44.061,-44.3383 z"
       style="fill:#679111;fill-rule:evenodd;stroke:#b1c900;stroke-width:0.4997;stroke-linecap:butt;stroke-linejoin:miter;stroke-dasharray:none"
       id="path4" />
    <path
       d="m 663.9659,261.6258 c -2.9576,9.9805 3.2985,25.8008 15.2135,40.8355 -33.7997,-4.6446 -39.3049,-30.8013 -15.163,-76.0423 0.9591,20.5107 53.083,47.6877 19.9533,72.6451 -11.6536,-10.9038 -18.987,-23.1728 -20.0038,-37.4383 z"
       style="fill:#679111;fill-rule:evenodd;stroke:#b1c900;stroke-width:0.4997;stroke-linecap:butt;stroke-linejoin:miter;stroke-dasharray:none"
       id="path6" />
    <path
       d="m 308.0364,271.083 v 51.1803 h 3.562 c 5.4991,0 9.9674,-0.8121 13.4672,-2.4681 3.4678,-1.6561 6.4054,-4.4372 8.8112,-8.3114 2.4059,-3.9062 3.9997,-9.1866 4.7183,-15.8419 h 3.1867 v 62.2416 h -3.1867 c -1.1562,-11.748 -4.3127,-19.4973 -9.4676,-23.247 -5.1558,-3.7488 -10.9992,-5.6236 -17.5291,-5.6236 h -3.562 v 38.0572 c 0,6.4054 0.3433,10.405 1.0308,11.9979 0.7186,1.5938 2.0625,3 4.0938,4.1873 2.0306,1.2185 4.7806,1.8126 8.2172,1.8126 h 4.093 v 3.1867 h -64.6786 v -3.1867 h 4.093 c 3.5932,0 6.4997,-0.6564 8.6867,-1.938 1.5938,-0.8743 2.8123,-2.3427 3.6554,-4.4363 0.6564,-1.4684 1.0006,-5.3435 1.0006,-11.6235 v -81.9266 c 0,-6.4055 -0.3442,-10.4051 -1.0006,-11.998 -0.6875,-1.5938 -2.0305,-2.9999 -4.0618,-4.1873 -2.0305,-1.2184 -4.7805,-1.8125 -8.2803,-1.8125 h -4.093 v -3.1867 h 104.6106 v 35.6202 h -3.7488 c -0.844,-8.3736 -3.031,-14.5603 -6.5619,-18.591 -3.4998,-4.0307 -8.5925,-6.8741 -15.2478,-8.5302 -3.6874,-0.9063 -10.4673,-1.375 -20.3725,-1.375 z m 123.9601,71.2406 h -47.0561 c 0.5621,11.3415 3.5931,20.3093 9.0922,26.9024 4.2184,5.0615 9.28,7.5927 15.2167,7.5927 3.6874,0 6.9995,-1.0308 9.9995,-3.0621 2.999,-2.0314 6.2177,-5.718 9.6232,-10.9983 l 3.1245,2.0616 c -4.624,9.4054 -9.7798,16.0918 -15.3732,19.9981 -5.6237,3.9053 -12.1234,5.8735 -19.5285,5.8735 -12.6854,0 -22.3096,-4.8739 -28.8395,-14.6225 -5.2492,-7.8427 -7.8738,-17.5914 -7.8738,-29.246 0,-14.2481 3.8742,-25.5906 11.5923,-34.0273 7.7173,-8.436 16.7785,-12.6544 27.1524,-12.6544 8.6547,0 16.1852,3.5309 22.5595,10.6238 6.3743,7.093 9.8109,17.6225 10.3108,31.5585 z m -22.4973,-5.9999 c 0,-9.8109 -0.5309,-16.5597 -1.5929,-20.2159 -1.0939,-3.6555 -2.75,-6.4366 -4.9993,-8.3114 -1.2816,-1.0931 -2.9999,-1.6561 -5.1558,-1.6561 -3.1556,0 -5.7491,1.5627 -7.7804,4.656 -3.5932,5.4369 -5.4049,12.8731 -5.4049,22.3407 v 3.1867 z m 75.5921,39.1823 c -10.4361,9.2488 -19.8415,13.8737 -28.1217,13.8737 -4.9051,0 -8.9669,-1.5938 -12.2168,-4.8125 -3.2187,-3.1867 -4.8427,-7.2175 -4.8427,-12.0291 0,-6.5308 2.8114,-12.4044 8.4359,-17.6225 5.6245,-5.2181 17.8724,-12.1545 36.7453,-20.81 v -8.5925 c 0,-6.4366 -0.3441,-10.4984 -1.0628,-12.1856 -0.6875,-1.6561 -2.0305,-3.1245 -3.9996,-4.3749 -1.9682,-1.2496 -4.1864,-1.8749 -6.6242,-1.8749 -3.9987,0 -7.2797,0.8752 -9.842,2.6566 -1.5938,1.0931 -2.3747,2.3747 -2.3747,3.8431 0,1.2808 0.844,2.8434 2.5623,4.7494 2.3124,2.6246 3.4678,5.1549 3.4678,7.5927 0,2.968 -1.0931,5.5303 -3.3433,7.6239 -2.2181,2.0937 -5.1238,3.1556 -8.7169,3.1556 -3.8431,0 -7.0618,-1.1562 -9.6553,-3.4686 -2.5935,-2.3116 -3.9053,-5.0304 -3.9053,-8.1237 0,-4.4052 1.7494,-8.5925 5.218,-12.5921 3.4989,-3.9676 8.3426,-7.0298 14.5603,-9.1857 6.2489,-2.1248 12.7166,-3.1876 19.4351,-3.1876 8.1237,0 14.5603,1.7183 19.2785,5.1558 4.7494,3.4367 7.8116,7.1552 9.2177,11.186 0.8432,2.5623 1.2807,8.4359 1.2807,17.6225 v 33.1521 c 0,3.8743 0.1566,6.3423 0.4687,7.3429 0.3122,0.9997 0.7498,1.7494 1.375,2.2493 0.6244,0.4687 1.3119,0.7186 2.0937,0.7186 1.624,0 3.249,-1.0939 4.9361,-3.281 l 2.75,2.1248 c -3.0621,4.5306 -6.2177,7.8427 -9.4987,9.8741 -3.2498,2.0616 -6.9675,3.0933 -11.1237,3.0933 -4.8739,0 -8.7178,-1.1562 -11.4669,-3.4375 -2.75,-2.3116 -4.4061,-5.7802 -5.0305,-10.4362 z m 0,-6.7487 v -28.4962 c -7.3739,4.3429 -12.8739,8.9677 -16.4982,13.9047 -2.3747,3.2802 -3.5621,6.6234 -3.5621,9.9666 0,2.8123 0.9997,5.2812 3.0311,7.406 1.5307,1.6561 3.6554,2.4681 6.4054,2.4681 3.0622,0 6.5931,-1.7495 10.6238,-5.2492 z m 95.6818,-68.4283 1.3128,29.246 h -3.1876 c -3.6865,-8.6547 -7.4985,-14.5603 -11.467,-17.7479 -3.9373,-3.1556 -7.8738,-4.7494 -11.8111,-4.7494 -2.4681,0 -4.5929,0.8441 -6.3423,2.5001 -1.7503,1.6872 -2.6255,3.6243 -2.6255,5.8113 0,1.6249 0.5941,3.2187 1.8126,4.7494 1.9371,2.5001 7.374,6.7496 16.2795,12.8108 8.9357,6.0621 14.779,11.2171 17.6224,15.4355 2.8123,4.2184 4.2184,8.9678 4.2184,14.1858 0,4.7494 -1.1873,9.4045 -3.562,13.9671 -2.3435,4.5617 -5.6868,8.0615 -9.9994,10.4984 -4.3118,2.437 -9.0612,3.6554 -14.2793,3.6554 -4.0619,0 -9.4987,-1.2807 -16.2786,-3.8742 -1.8437,-0.6563 -3.0622,-0.9997 -3.7497,-0.9997 -1.9993,0 -3.6554,1.5618 -4.9993,4.6863 h -3.1867 l -1.5004,-30.7455 h 3.1876 c 2.718,7.9992 6.4677,13.9982 11.2482,17.9978 4.7494,3.9996 9.2488,5.9989 13.4983,5.9989 2.9368,0 5.3115,-0.9062 7.1552,-2.6868 1.8437,-1.8126 2.7812,-3.9685 2.7812,-6.5308 0,-2.9368 -0.9063,-5.4369 -2.7189,-7.5928 -1.8437,-2.1248 -5.9056,-5.3426 -12.2168,-9.6544 -9.311,-6.4686 -15.3109,-11.3736 -18.06,-14.78 -3.9996,-4.9992 -5.999,-10.4984 -5.999,-16.5285 0,-6.5931 2.2493,-12.5298 6.7799,-17.8413 4.5306,-5.3434 11.0925,-7.9992 19.6538,-7.9992 4.624,0 9.0923,1.1562 13.4041,3.4687 1.6249,0.9374 2.9688,1.4061 3.9996,1.4061 1.094,0 1.9994,-0.2499 2.6558,-0.7186 0.6563,-0.4687 1.7183,-1.7815 3.1875,-3.9685 z m 48.0956,-29.246 v 31.4953 h 20.2471 v 8.9989 h -20.2471 v 52.8994 c 0,4.9682 0.2188,8.1549 0.6875,9.5921 0.4367,1.4373 1.2496,2.5935 2.4058,3.4687 1.1563,0.9063 2.2182,1.3438 3.1868,1.3438 3.9684,0 7.6861,-2.9999 11.217,-8.9989 l 2.75,1.9994 c -4.937,11.6547 -12.9674,17.498 -24.059,17.498 -5.4369,0 -10.0306,-1.5004 -13.7794,-4.5306 -3.7497,-3.0311 -6.1555,-6.4054 -7.1872,-10.124 -0.5932,-2.0936 -0.9054,-7.7173 -0.9054,-16.8727 v -46.2752 h -11.2491 v -3.2179 c 7.7182,-5.4368 14.2793,-11.1548 19.7161,-17.1537 5.4058,-5.9999 10.1551,-12.7175 14.1859,-20.1226 z m 64.062,29.0583 c 7.4051,0 14.3104,1.906 20.7158,5.7491 6.3743,3.8439 11.2482,9.3119 14.5603,16.3729 3.3121,7.0617 4.9682,14.779 4.9682,23.1847 0,12.1233 -3.0622,22.2785 -9.2177,30.4333 -7.4362,9.8732 -17.6847,14.8102 -30.7455,14.8102 -12.842,0 -22.7472,-4.4994 -29.6836,-13.5294 -6.9364,-8.9989 -10.405,-19.4662 -10.405,-31.3397 0,-12.2478 3.5309,-22.9028 10.6238,-32.0262 7.0929,-9.0932 16.8105,-13.6549 29.1837,-13.6549 z m 0.4056,6.3743 c -3.0933,0 -5.749,1.1874 -7.9672,3.5309 -2.2182,2.3436 -3.6874,6.9675 -4.3749,13.8728 -0.7186,6.9364 -1.062,16.5294 -1.062,28.8404 0,6.53 0.4376,12.6232 1.2808,18.31 0.6563,4.3118 2.0936,7.6239 4.2806,9.8732 2.1879,2.2501 4.6871,3.3743 7.4683,3.3743 2.7491,0 5.0304,-0.7497 6.843,-2.2804 2.3747,-2.0625 3.9364,-4.9681 4.7493,-8.6867 1.2185,-5.7802 1.8118,-17.4971 1.8118,-35.1204 0,-10.3419 -0.5622,-17.466 -1.7184,-21.3402 -1.1562,-3.8751 -2.8745,-6.6865 -5.1246,-8.4679 -1.5618,-1.2807 -3.6243,-1.906 -6.1867,-1.906 z"
       style="fill:#000200;fill-rule:evenodd"
       id="path8" />
    <path
       d="m 753.9254,306.2853 c 4.5352,0 8.6411,1.8383 11.6133,4.8105 2.9722,2.9722 4.8106,7.0782 4.8106,11.6134 0,4.5351 -1.8384,8.6411 -4.8106,11.6133 -2.9722,2.9722 -7.0781,4.8105 -11.6133,4.8105 -4.5351,0 -8.6411,-1.8383 -11.6133,-4.8105 -2.9722,-2.9722 -4.8105,-7.0782 -4.8105,-11.6133 0,-4.5352 1.8383,-8.6412 4.8105,-11.6134 2.9722,-2.9722 7.0782,-4.8105 11.6133,-4.8105 z m 9.125,7.2989 c -2.3351,-2.3351 -5.5613,-3.7795 -9.125,-3.7795 -3.5636,0 -6.7898,1.4444 -9.125,3.7795 -2.3351,2.3351 -3.7794,5.5613 -3.7794,9.125 0,3.5636 1.4443,6.7898 3.7794,9.1249 2.3352,2.3352 5.5614,3.7795 9.125,3.7795 3.5637,0 6.7899,-1.4443 9.125,-3.7795 2.3351,-2.3351 3.7795,-5.5613 3.7795,-9.1249 0,-3.5637 -1.4444,-6.7899 -3.7795,-9.125 z"
       style="fill:#000200;fill-rule:evenodd"
       id="path10" />
    <path
       d="m 752.2437,321.0658 h 1.6682 c 0.4882,0 0.8954,-0.041 1.2224,-0.1228 0.2951,-0.0739 0.519,-0.1794 0.6724,-0.3165 l 0.002,-0.001 c 0.1534,-0.1356 0.2717,-0.3373 0.3549,-0.6039 0.0918,-0.2943 0.1375,-0.6603 0.1375,-1.0975 0,-0.3801 -0.0487,-0.6981 -0.1457,-0.9539 -0.0877,-0.2314 -0.2147,-0.4097 -0.3804,-0.5352 l 7e-4,-7e-4 c -0.1719,-0.1285 -0.4282,-0.2281 -0.7693,-0.2986 -0.3734,-0.0772 -0.8378,-0.1159 -1.3942,-0.1159 h -1.368 z m 1.6682,0.7012 h -2.0713 -0.403 v -0.3506 -4.7475 -0.3506 h 0.403 1.7711 c 0.6186,0 1.1449,0.0451 1.5799,0.135 0.4665,0.0964 0.8363,0.2475 1.1103,0.4528 h 0.002 c 0.2766,0.2094 0.4824,0.4909 0.6165,0.8447 0.1243,0.3277 0.1867,0.7187 0.1867,1.173 0,0.4988 -0.0552,0.926 -0.1659,1.2809 -0.1191,0.3816 -0.305,0.6849 -0.5581,0.9093 l 10e-5,1e-4 c -0.2541,0.2271 -0.5964,0.3946 -1.028,0.5027 -0.3998,0.1001 -0.8805,0.1502 -1.4429,0.1502 z m -5.9479,9.3227 v -16.7611 -0.3505 h 0.4031 6.454 c 1.0117,0 1.8894,0.0902 2.6311,0.271 0.7644,0.1864 1.3854,0.47 1.861,0.8511 l -7e-4,7e-4 c 0.4822,0.3847 0.8414,0.8849 1.0779,1.5003 0.2297,0.5978 0.3443,1.3026 0.3443,2.1146 0,0.5699 -0.0616,1.083 -0.1847,1.5393 -0.1261,0.4672 -0.3173,0.8747 -0.5735,1.2224 l 4e-4,3e-4 c -0.2616,0.3578 -0.5887,0.643 -0.98,0.8556 -0.0758,0.0412 -0.1539,0.0795 -0.2341,0.115 0.4579,0.2469 0.836,0.5787 1.1336,0.9954 0.4844,0.6781 0.7466,1.5769 0.7852,2.6957 l 0.002,0.01 v 0.2192 h -9e-4 l 0.1021,2.2013 h 2e-4 c 0.0165,0.3056 0.0461,0.5776 0.0889,0.816 0.0413,0.2292 0.0961,0.4313 0.1646,0.6062 l 4e-4,-10e-5 c 0.0656,0.1654 0.149,0.3193 0.2498,0.4603 0.1017,0.1424 0.2205,0.2727 0.3559,0.3899 l -0.2834,0.5985 h -4.2798 -0.2969 l -0.0871,-0.2493 c -0.056,-0.1602 -0.1043,-0.3271 -0.1438,-0.5004 -0.0391,-0.1715 -0.0725,-0.357 -0.0993,-0.5568 v -0.003 c -0.0245,-0.1985 -0.0457,-0.4392 -0.0629,-0.722 -0.0159,-0.2612 -0.0285,-0.5685 -0.0372,-0.9226 h -10e-5 l -0.0515,-1.7534 -0.002,-0.008 v -0.4457 c 0,-0.4504 -0.0537,-0.825 -0.1604,-1.1234 -0.0966,-0.2704 -0.236,-0.4756 -0.4171,-0.6146 h -1e-4 c -0.1863,-0.1411 -0.4889,-0.2508 -0.9068,-0.3285 -0.4565,-0.0849 -1.0384,-0.1276 -1.7448,-0.1276 h -0.8277 v 7.0047 0.3506 h -0.4031 -3.4735 -0.4031 z m 0.8061,-16.4105 v 16.0599 h 2.6675 v -7.0047 -0.3506 h 0.403 1.2308 c 0.7588,0 1.3964,0.0482 1.9117,0.144 0.5557,0.1034 0.979,0.2652 1.2689,0.4847 l 0.002,0.001 c 0.2942,0.225 0.5128,0.5365 0.6548,0.9335 0.1319,0.369 0.1983,0.8131 0.1983,1.3317 v 0.4457 h -0.001 l 0.0513,1.7452 v 0.001 c 0.008,0.3297 0.0207,0.6307 0.0373,0.9021 0.0162,0.2647 0.0362,0.4918 0.0594,0.681 h 3e-4 c 0.0239,0.1781 0.0541,0.3455 0.0898,0.502 0.0146,0.0638 0.0297,0.1247 0.0453,0.1827 h 3.1595 c -0.1086,-0.1639 -0.1993,-0.3377 -0.2716,-0.5202 v -0.001 c -0.0814,-0.2074 -0.1468,-0.4491 -0.1965,-0.7253 -0.048,-0.2676 -0.0808,-0.5642 -0.0984,-0.89 v -0.003 l -0.103,-2.2177 -0.002,-0.0137 v -0.2192 h 0.001 c -0.0353,-0.9859 -0.2574,-1.7646 -0.6652,-2.3354 -0.391,-0.5473 -0.9627,-0.907 -1.7141,-1.0782 l 0.0441,-0.6848 c 0.3927,-0.0488 0.736,-0.1526 1.0287,-0.3116 0.2866,-0.1558 0.5286,-0.3679 0.7249,-0.6365 l 0.002,-0.001 c 0.2063,-0.2796 0.3623,-0.6147 0.4676,-1.0049 0.1084,-0.4017 0.1626,-0.862 0.1626,-1.3804 0,-0.7406 -0.0999,-1.3716 -0.3001,-1.8927 -0.1933,-0.5031 -0.4793,-0.9057 -0.8584,-1.2079 h -0.002 c -0.381,-0.3053 -0.8928,-0.536 -1.5336,-0.6922 -0.6668,-0.1626 -1.4721,-0.2438 -2.4138,-0.2438 z"
       style="fill:#000200;fill-rule:evenodd"
       id="path12" />
    <path
       d="m 751.8406,321.4164 h 2.0713 c 1.0507,0 1.7754,-0.182 2.1828,-0.5461 0.4074,-0.3603 0.6089,-1.0104 0.6089,-1.9465 0,-0.8358 -0.2229,-1.419 -0.6646,-1.7534 -0.446,-0.3343 -1.2523,-0.5015 -2.4273,-0.5015 h -1.7711 z m -3.4735,9.6733 v -16.7611 h 6.454 c 1.9512,0 3.362,0.3418 4.2197,1.0291 0.8619,0.6872 1.2909,1.8053 1.2909,3.3581 0,1.0884 -0.2317,1.9465 -0.6948,2.5743 -0.4588,0.6278 -1.1407,0.9956 -2.037,1.107 1.7111,0.3901 2.6074,1.6419 2.6803,3.7519 0,0.0966 0,0.1672 0,0.2192 l 0.1029,2.2177 c 0.0343,0.6315 0.1243,1.1367 0.2745,1.5193 0.15,0.379 0.3859,0.7096 0.7032,0.9845 h -4.2798 c -0.0986,-0.2823 -0.1758,-0.613 -0.2273,-0.9956 -0.0471,-0.3826 -0.0814,-0.9213 -0.0986,-1.6159 l -0.0515,-1.7534 v -0.4457 c 0,-0.9696 -0.2401,-1.6383 -0.7161,-2.0023 -0.476,-0.3604 -1.4495,-0.5424 -2.9161,-0.5424 h -1.2308 v 7.3553 z"
       style="fill:#000200;fill-rule:evenodd"
       id="path14" />
  </g>
</svg>